<?xml version="1.0" standalone="no"?>
<!DOCTYPE svg PUBLIC "-//W3C//DTD SVG 20010904//EN"
 "http://www.w3.org/TR/2001/REC-SVG-20010904/DTD/svg10.dtd">
<svg version="1.0" xmlns="http://www.w3.org/2000/svg"
 width="1920.000000pt" height="1080.000000pt" viewBox="0 0 1920.000000 1080.000000"
 preserveAspectRatio="xMidYMid meet">

<g transform="translate(0.000000,1080.000000) scale(0.100000,-0.100000)"
fill="#000000" stroke="none">
<path d="M7020 7345 c-294 -33 -566 -150 -773 -335 -390 -347 -556 -895 -437
-1445 62 -291 220 -560 440 -751 299 -260 685 -378 1105 -339 201 19 351 61
512 143 427 218 686 586 758 1077 33 225 10 492 -62 705 -181 536 -618 885
-1183 945 -158 17 -206 17 -360 0z m455 -363 c424 -119 704 -454 766 -920 21
-156 -3 -393 -55 -547 -115 -338 -401 -601 -736 -680 -105 -24 -385 -24 -490
0 -175 41 -337 133 -475 269 -104 103 -135 146 -198 272 -88 175 -120 319
-120 539 0 262 60 469 192 663 132 195 381 363 611 412 127 27 396 23 505 -8z"/>
<path d="M9495 7354 c-159 -25 -320 -76 -407 -130 -163 -102 -295 -285 -342
-475 -25 -101 -30 -95 87 -107 107 -12 265 -25 282 -23 6 1 19 32 31 69 27 91
63 149 132 214 78 74 165 115 269 127 297 32 512 -111 554 -368 24 -145 -26
-304 -148 -466 -36 -49 -294 -313 -657 -672 l-596 -593 2 -195 3 -195 890 0
c490 0 893 0 898 0 4 0 6 71 5 158 l-3 157 -682 3 c-376 1 -683 6 -683 10 0 9
83 90 520 512 569 548 656 643 740 811 84 165 104 251 104 424 -1 154 -14 211
-79 340 -125 250 -386 388 -755 399 -74 3 -148 2 -165 0z"/>
<path d="M12450 7323 c-126 -13 -336 -71 -434 -120 -203 -102 -359 -251 -448
-428 -67 -133 -109 -313 -107 -460 l1 -70 13 60 c40 180 126 334 274 489 200
208 441 345 722 408 94 21 127 23 349 22 203 -1 263 -4 350 -21 58 -11 106
-20 108 -18 6 5 -206 77 -296 99 -159 40 -373 56 -532 39z"/>
<path d="M11670 7303 c-381 -60 -666 -305 -776 -668 -25 -82 -27 -105 -27
-250 0 -145 2 -168 26 -248 120 -393 447 -654 847 -674 l115 -5 -60 44 c-76
57 -190 177 -246 259 -121 178 -179 373 -179 597 0 211 49 387 156 560 60 98
254 292 341 343 l63 36 -46 7 c-49 6 -171 6 -214 -1z"/>
<path d="M13341 6636 c207 -503 128 -1093 -201 -1506 -298 -374 -711 -577
-1180 -581 l-125 -1 90 -24 c124 -34 356 -43 505 -21 526 80 955 444 1114 947
53 166 69 292 63 475 -8 208 -43 352 -130 536 -36 76 -146 251 -165 263 -5 3
8 -37 29 -88z"/>
<path d="M10580 5813 c0 -6 11 -49 24 -95 128 -442 476 -798 919 -942 150 -49
237 -61 437 -60 164 0 198 3 299 27 110 26 144 43 118 59 -8 5 -8 8 -1 8 6 0
11 7 11 15 0 8 -5 15 -11 15 -6 0 -5 4 2 9 8 4 14 12 14 16 0 4 -6 12 -14 16
-7 5 -8 9 -2 9 6 0 11 7 11 15 0 8 -5 15 -11 15 -6 0 -5 4 2 9 8 4 14 12 14
16 0 4 -6 12 -14 16 -7 5 -8 9 -2 9 6 0 11 7 11 15 0 8 -5 15 -11 15 -6 0 -5
4 2 9 8 4 14 12 14 16 0 4 -6 12 -14 16 -7 5 -8 9 -2 9 6 0 11 7 11 15 0 8 -5
15 -11 15 -6 0 -5 4 2 9 8 4 14 12 14 16 0 4 -6 12 -14 16 -7 5 -8 9 -2 9 14
0 14 30 0 30 -6 0 -4 5 4 10 23 15 -17 13 -76 -4 -146 -42 -217 -51 -419 -51
-220 1 -320 16 -497 75 -285 95 -578 311 -746 550 -56 80 -62 87 -62 73z"/>
<path d="M6149 4207 c-125 -35 -197 -145 -187 -286 13 -173 156 -278 332 -241
81 17 144 64 181 135 26 51 30 69 29 134 -1 118 -56 208 -152 248 -48 20 -149
25 -203 10z m175 -91 c125 -73 119 -283 -10 -346 -119 -59 -247 16 -261 153
-13 125 64 217 181 217 34 0 62 -7 90 -24z"/>
<path d="M6775 4211 c-128 -32 -200 -129 -199 -271 0 -115 45 -191 141 -239
91 -46 219 -34 292 26 l33 28 -38 27 c-37 27 -39 27 -59 9 -77 -71 -197 -48
-253 48 -56 96 -22 235 70 282 54 27 137 23 171 -9 l23 -22 32 23 c17 12 32
25 32 29 0 4 -15 18 -32 32 -55 41 -137 55 -213 37z"/>
<path d="M8768 4206 c-86 -31 -124 -84 -115 -163 6 -60 43 -96 131 -129 115
-43 144 -87 91 -139 -40 -41 -134 -30 -167 19 -5 7 -20 -2 -40 -22 l-33 -33
27 -24 c40 -35 126 -51 189 -37 92 22 139 76 139 162 0 79 -39 119 -149 155
-58 19 -101 53 -101 80 0 9 11 27 25 40 31 32 100 35 137 5 l25 -19 28 29 c36
38 28 55 -36 74 -63 19 -102 20 -151 2z"/>
<path d="M9400 4211 c-45 -14 -71 -35 -92 -74 -10 -22 -18 -40 -16 -42 2 -1
18 -6 35 -10 29 -6 34 -3 42 18 14 35 49 57 94 57 53 0 87 -35 87 -89 0 -46
-40 -99 -179 -236 -73 -72 -81 -83 -81 -117 l0 -38 165 0 165 0 0 30 0 30
-131 0 -130 0 110 105 c128 123 156 170 149 246 -10 96 -112 152 -218 120z"/>
<path d="M10207 4206 c-47 -17 -71 -39 -87 -77 -15 -35 -15 -35 27 -43 26 -6
32 -4 38 13 9 30 54 61 87 61 77 0 121 -68 86 -133 -6 -12 -67 -80 -135 -152
-105 -111 -123 -135 -123 -162 l0 -33 170 0 170 0 0 30 0 30 -132 0 -132 0
121 123 c128 130 150 167 140 234 -9 51 -33 82 -80 104 -49 22 -97 23 -150 5z"/>
<path d="M12732 4206 c-75 -25 -112 -73 -112 -149 0 -66 32 -107 105 -135 115
-43 130 -53 133 -93 3 -30 -2 -41 -24 -58 -36 -29 -92 -27 -137 3 l-35 24 -32
-33 -32 -33 26 -17 c157 -103 361 -8 331 153 -10 52 -59 95 -135 121 -87 28
-110 45 -110 81 0 62 81 91 152 54 29 -15 31 -15 59 12 16 15 29 31 29 34 0
14 -78 42 -125 46 -27 2 -69 -3 -93 -10z"/>
<path d="M9815 4203 c-96 -26 -153 -179 -126 -340 23 -131 92 -201 189 -190
60 7 91 32 127 102 28 55 30 68 30 165 0 97 -2 110 -30 165 -16 32 -42 68 -56
78 -27 20 -98 30 -134 20z m107 -80 c36 -39 48 -84 48 -177 0 -144 -37 -216
-111 -216 -70 0 -109 74 -109 210 0 91 13 140 46 180 35 41 89 42 126 3z"/>
<path d="M7100 3940 l0 -260 180 0 180 0 0 40 0 40 -135 0 -135 0 0 75 0 75
120 0 120 0 0 40 0 40 -120 0 -120 0 0 65 0 65 125 0 125 0 0 40 0 40 -170 0
-170 0 0 -260z"/>
<path d="M7711 4178 c-5 -13 -54 -126 -110 -252 -56 -126 -101 -233 -101 -238
0 -5 21 -8 46 -6 46 3 46 3 68 58 l22 55 119 0 119 0 22 -55 22 -55 52 -3 c28
-2 50 1 48 5 -3 4 -54 122 -114 261 l-109 252 -38 0 c-30 0 -39 -5 -46 -22z
m90 -196 l36 -97 -44 -3 c-24 -2 -61 -2 -82 0 l-39 3 40 103 c22 57 43 101 46
97 4 -3 23 -50 43 -103z"/>
<path d="M8080 3940 l0 -260 45 0 45 0 2 201 3 200 130 -200 130 -201 58 0 57
0 0 260 0 260 -45 0 -45 0 -2 -192 -3 -193 -128 193 -128 192 -60 0 -59 0 0
-260z"/>
<path d="M10639 4083 c-40 -65 -87 -142 -106 -171 -21 -33 -33 -65 -33 -87 l0
-35 110 0 110 0 0 -55 0 -55 35 0 35 0 0 55 0 55 40 0 c38 0 40 2 40 30 0 28
-2 30 -40 30 l-40 0 0 175 0 175 -39 0 -40 0 -72 -117z m78 -230 c-3 -2 -39
-3 -81 -1 l-76 3 78 130 77 129 3 -128 c1 -71 1 -131 -1 -133z"/>
<path d="M11160 3940 l0 -262 133 4 c149 5 196 19 228 72 42 68 10 169 -61
192 -31 10 -32 12 -13 18 61 19 90 104 58 166 -27 52 -65 64 -212 68 l-133 4
0 -262z m248 164 c15 -10 22 -25 22 -49 0 -49 -28 -65 -112 -65 l-68 0 0 65 0
65 68 0 c45 0 75 -5 90 -16z m12 -207 c16 -8 26 -23 28 -41 9 -74 -21 -96
-128 -96 l-70 0 0 75 0 75 73 0 c39 0 83 -6 97 -13z"/>
<path d="M11640 3940 l0 -260 45 0 45 0 0 111 0 110 37 -3 c35 -3 38 -7 96
-110 l59 -108 53 0 54 0 -69 112 -69 113 42 20 c75 36 101 136 54 206 -33 50
-95 68 -234 69 l-113 0 0 -260z m254 159 c17 -13 26 -30 26 -49 0 -47 -39 -70
-121 -70 l-69 0 0 70 0 70 69 0 c54 0 74 -4 95 -21z"/>
<path d="M12261 4178 c-5 -13 -54 -126 -110 -252 -56 -126 -101 -233 -101
-238 0 -5 21 -8 46 -6 46 3 46 3 68 58 l22 55 119 0 119 0 22 -55 22 -55 52
-3 c28 -2 50 1 48 5 -3 4 -54 122 -114 261 l-109 252 -38 0 c-30 0 -39 -5 -46
-22z m90 -196 l36 -97 -44 -3 c-24 -2 -61 -2 -82 0 l-39 3 40 103 c22 57 43
101 46 97 4 -3 23 -50 43 -103z"/>
<path d="M13050 3940 l0 -260 45 0 45 0 0 260 0 260 -45 0 -45 0 0 -260z"/>
<path d="M13260 3940 l0 -260 155 0 155 0 0 40 0 40 -110 0 -110 0 0 220 0
220 -45 0 -45 0 0 -260z"/>
</g>
</svg>
